# xmcd
# Copyright (C) 1995-1998 Ti Kan
#
# Track frame offsets:
#       150
#       12706
#       27773
#       43620
#       57232
#       77198
#       99168
#       115312
#       131758
#       150236
#       171097
#
# Disc length: 2493 seconds
#
# Revision: 0
# Processed by: cddbd v1.5.2PL0 Copyright (c) Steve Scherf et al.
# Submitted via: CD-Import v1.0
#
DISCID=8309bb0b
DTITLE=Telaphones - Unthink And Exile
DYEAR=2009
DGENRE=
TTITLE0=What I Need
TTITLE1=Some Day
TTITLE2=Take Me Back
TTITLE3=Murder In The Web
TTITLE4=Break My Heart
TTITLE5=Black Angel
TTITLE6=Wellingtons
TTITLE7=Time For A Change
TTITLE8=Mavericks
TTITLE9=You Lied To Me
TTITLE10=Cornoopia
EXTD=
EXTT0=
EXTT1=
EXTT2=
EXTT3=
EXTT4=
EXTT5=
EXTT6=
EXTT7=
EXTT8=
EXTT9=
EXTT10=
PLAYORDER=
